<svg width="336" height="64" viewBox="0 0 336 64" fill="none" xmlns="http://www.w3.org/2000/svg">
<path d="M325.515 -229.378C342.3 -216.664 359.385 -203.644 371.421 -186.245C383.458 -168.845 389.815 -145.992 382.83 -125.939C374.21 -101.206 346.535 -86.7756 320.773 -88.6112C295.011 -90.4467 271.678 -105.833 254.397 -125.329C245.021 -135.903 237 -152.226 245.551 -163.507C254.062 -174.748 271.661 -171.112 283.866 -164.243C304.183 -152.807 321.138 -135.298 332.057 -114.468C338.219 -102.71 342.537 -89.5557 341.724 -76.2639C340.901 -62.9721 334.252 -49.5854 322.75 -43.1844C304.058 -32.785 281.328 -43.2611 261.924 -52.2121C237.936 -63.2742 212.917 -72.0391 187.316 -78.3527C173.826 -81.6786 159.827 -84.3354 146.12 -82.1062C132.413 -79.8769 118.906 -71.9385 113.231 -59.0611C104.01 -38.1376 119.11 -13.1731 139.029 -2.3925C158.949 8.38814 182.343 9.41875 204.571 13.3891C220.584 16.2514 239.778 25.0662 239.575 41.5869C239.423 53.5614 228.372 62.5194 217.278 66.5642C198.239 73.5158 176.111 71.0631 158.991 60.1133C144.147 50.6223 133.644 35.7224 121.813 22.5658C109.982 9.40921 95.1715 -2.84561 77.6689 -4.00479C61.2543 -5.0919 44.663 4.93241 37.763 20.1006C30.8631 35.2688 34.1025 54.6011 45.5605 66.5943C62.5318 84.3687 90.2096 83.3747 114.572 83.9692C138.94 84.5694 168.079 91.8449 175.533 115.413C180.156 130.013 173.95 146.617 162.882 157.041C151.814 167.466 136.697 172.453 121.709 174.3C75.4013 179.991 26.8278 155.771 2.93315 115.073" stroke="#281E7D" stroke-width="6" stroke-miterlimit="10"/>
</svg>
