<svg width="211" height="64" viewBox="0 0 211 64" fill="none" xmlns="http://www.w3.org/2000/svg">
<path d="M174.423 -133.91C187.006 -112.046 199.776 -89.7056 205.008 -64.9482C210.241 -40.1909 206.752 -12.1367 189.918 6.54616C169.151 29.5885 132.21 32.3376 104.81 18.1594C77.4091 3.98122 58.8723 -23.9037 48.8502 -53.4363C43.4113 -69.4559 42.0882 -91.1366 56.6235 -99.4646C71.0979 -107.768 88.7257 -95.4715 98.9621 -82.178C116 -60.0468 126.574 -32.8458 129.011 -4.8559C130.386 10.9425 129.1 27.402 122.127 41.5888C115.141 55.7703 101.727 67.305 86.1896 68.89C60.9409 71.4628 40.818 49.2447 23.6428 30.2689C2.40888 6.81419 -21.006 -14.609 -46.1801 -33.6196C-59.4468 -43.6365 -73.5764 -53.1597 -89.622 -57.1889C-105.668 -61.2182 -124.107 -58.8948 -136.22 -47.4586C-155.903 -28.8767 -150.775 5.62024 -133.872 26.8448C-116.97 48.0694 -91.7966 60.2471 -69.2471 75.0965C-53.0029 85.7964 -35.996 104.524 -43.7788 122.538C-49.4253 135.592 -65.6389 140.193 -79.6501 139.388C-103.702 138.018 -126.837 124.879 -140.593 104.791C-152.522 87.3767 -157.217 66.0836 -164.166 46.0741C-171.114 26.0646 -181.742 5.63645 -200.398 -3.8998C-217.894 -12.8432 -240.669 -9.68971 -255.174 3.67923C-269.679 17.0482 -274.974 39.7702 -267.902 58.3281C-257.431 85.8272 -226.636 97.8082 -200.202 109.965C-173.765 122.13 -145.152 143.867 -147.766 173.223C-149.378 191.411 -163.779 206.681 -180.682 212.881C-197.585 219.082 -216.439 217.41 -233.713 212.356C-287.081 196.726 -329.244 147.238 -336.814 91.3404" stroke="#FBD332" stroke-width="6" stroke-miterlimit="10"/>
</svg>
