<svg width="48" height="48" viewBox="0 0 48 48" fill="none" xmlns="http://www.w3.org/2000/svg">
<circle cx="24" cy="24" r="23" fill="white" stroke="black" stroke-width="2"/>
<g clip-path="url(#clip0_7611_10596)">
<mask id="path-2-outside-1_7611_10596" maskUnits="userSpaceOnUse" x="9.59961" y="17.7344" width="28" height="13" fill="black">
<rect fill="white" x="9.59961" y="17.7344" width="28" height="13"/>
<path d="M12.5996 24.001L16.8663 19.7344ZM12.5996 24.001L16.8663 28.2677ZM12.5996 24.001H35Z"/>
</mask>
<path d="M12.5996 24.001L11.1854 22.5868L9.77118 24.001L11.1854 25.4153L12.5996 24.001ZM18.2805 21.1486C19.0615 20.3675 19.0615 19.1012 18.2805 18.3202C17.4994 17.5391 16.2331 17.5391 15.4521 18.3202L18.2805 21.1486ZM15.4521 29.6819C16.2331 30.463 17.4994 30.463 18.2805 29.6819C19.0615 28.9009 19.0615 27.6345 18.2805 26.8535L15.4521 29.6819ZM35 26.001C36.1046 26.001 37 25.1056 37 24.001C37 22.8965 36.1046 22.001 35 22.001V26.001ZM14.0138 25.4153L18.2805 21.1486L15.4521 18.3202L11.1854 22.5868L14.0138 25.4153ZM11.1854 25.4153L15.4521 29.6819L18.2805 26.8535L14.0138 22.5868L11.1854 25.4153ZM12.5996 26.001H35V22.001H12.5996V26.001Z" fill="black" mask="url(#path-2-outside-1_7611_10596)"/>
</g>
<defs>
<clipPath id="clip0_7611_10596">
<rect width="27" height="16" fill="white" transform="translate(10 16)"/>
</clipPath>
</defs>
</svg>
