<svg width="24" height="26" viewBox="0 0 24 26" fill="none" xmlns="http://www.w3.org/2000/svg">
<path d="M23.5088 19.1175C22.8013 17.9 21.75 14.4662 21.75 10C21.75 7.41414 20.7228 4.93419 18.8943 3.10571C17.0658 1.27723 14.5859 0.25 12 0.25C9.41417 0.25 6.93422 1.27723 5.10574 3.10571C3.27726 4.93419 2.25003 7.41414 2.25003 10C2.25003 14.4675 1.19753 17.9 0.490031 19.1175C0.3348 19.3833 0.25243 19.6854 0.251234 19.9932C0.250037 20.301 0.330057 20.6037 0.483217 20.8707C0.636377 21.1377 0.857258 21.3596 1.12357 21.514C1.38989 21.6684 1.69221 21.7498 2.00003 21.75H7.31003C7.4922 22.8618 8.06362 23.8727 8.92227 24.6021C9.78092 25.3315 10.8709 25.732 11.9975 25.732C13.1242 25.732 14.2141 25.3315 15.0728 24.6021C15.9314 23.8727 16.5029 22.8618 16.685 21.75H22C22.3076 21.7494 22.6096 21.6676 22.8756 21.5131C23.1416 21.3585 23.3621 21.1366 23.515 20.8696C23.6678 20.6027 23.7476 20.3002 23.7463 19.9926C23.745 19.685 23.6627 19.3831 23.5075 19.1175H23.5088ZM12 24.25C11.2687 24.2498 10.5588 24.0029 9.98509 23.5492C9.41143 23.0955 9.00756 22.4616 8.83878 21.75H15.1613C14.9925 22.4616 14.5886 23.0955 14.015 23.5492C13.4413 24.0029 12.7314 24.2498 12 24.25ZM22.2138 20.125C22.1932 20.1633 22.1625 20.1952 22.125 20.2172C22.0876 20.2393 22.0447 20.2506 22.0013 20.25H2.00003C1.95656 20.2506 1.91376 20.2393 1.87629 20.2172C1.83882 20.1952 1.80812 20.1633 1.78753 20.125C1.76559 20.087 1.75404 20.0439 1.75404 20C1.75404 19.9561 1.76559 19.913 1.78753 19.875C2.73378 18.25 3.75003 14.4613 3.75003 10C3.75003 7.81196 4.61923 5.71354 6.1664 4.16637C7.71358 2.61919 9.812 1.75 12 1.75C14.1881 1.75 16.2865 2.61919 17.8337 4.16637C19.3808 5.71354 20.25 7.81196 20.25 10C20.25 14.46 21.2675 18.2437 22.2138 19.875C22.2357 19.913 22.2473 19.9561 22.2473 20C22.2473 20.0439 22.2357 20.087 22.2138 20.125Z" fill="black"/>
</svg>
