<svg width="19" height="20" viewBox="0 0 19 20" fill="none" xmlns="http://www.w3.org/2000/svg">
<path d="M12.9995 5.50034L5.18917 13.44C4.91471 13.7228 4.76252 14.1021 4.76549 14.4961C4.76845 14.8901 4.92634 15.2672 5.20502 15.5457C5.4837 15.8243 5.8608 15.982 6.25481 15.9848C6.64883 15.9876 7.02813 15.8352 7.31073 15.5607L16.621 6.1219C17.1837 5.55923 17.4998 4.79608 17.4998 4.00034C17.4998 3.2046 17.1837 2.44145 16.621 1.87878C16.0584 1.31611 15.2952 1 14.4995 1C13.7037 1 12.9406 1.31611 12.3779 1.87878L3.0676 11.3185C2.23504 12.1647 1.77059 13.3056 1.77543 14.4928C1.78026 15.6799 2.25399 16.817 3.09341 17.6564C3.93284 18.4958 5.06995 18.9696 6.25707 18.9744C7.44418 18.9792 8.58512 18.5148 9.43135 17.6822L17.1245 10.0003" stroke="black" stroke-width="2" stroke-linecap="round" stroke-linejoin="round"/>
</svg>
