<svg width="56" height="56" viewBox="0 0 56 56" fill="none" xmlns="http://www.w3.org/2000/svg">
<rect x="0.5" y="0.5" width="55" height="55" rx="27.5" fill="#F5E6D3"/>
<rect x="0.5" y="0.5" width="55" height="55" rx="27.5" stroke="black"/>
<path fill-rule="evenodd" clip-rule="evenodd" d="M35.0003 37C37.2094 37 39.0003 35.2091 39.0003 33V24.0227C39.0006 24.0074 39.0006 23.9921 39.0003 23.9767V23C39.0003 20.7909 37.2094 19 35.0003 19H21.0003C18.7911 19 17.0003 20.7909 17.0003 23V23.9767C16.9999 23.9921 16.9999 24.0074 17.0003 24.0227V33C17.0003 35.2091 18.7911 37 21.0003 37H35.0003ZM19.0003 33C19.0003 34.1046 19.8957 35 21.0003 35H35.0003C36.1048 35 37.0003 34.1046 37.0003 33V25.477L29.4858 28.4828C28.5322 28.8643 27.4683 28.8643 26.5147 28.4828L19.0003 25.477V33ZM28.743 26.6259L37.0003 23.323V23C37.0003 21.8954 36.1048 21 35.0003 21H21.0003C19.8957 21 19.0003 21.8954 19.0003 23V23.323L27.2575 26.6259C27.7343 26.8166 28.2662 26.8166 28.743 26.6259Z" fill="black"/>
</svg>
