<svg width="126" height="48" viewBox="0 0 126 48" fill="none" xmlns="http://www.w3.org/2000/svg">
<rect x="0.5" y="0.501953" width="125" height="47" rx="7.5" fill="#FAF1E8"/>
<rect x="0.5" y="0.501953" width="125" height="47" rx="7.5" stroke="black"/>
<g clip-path="url(#clip0_4103_11391)">
<path d="M29.3501 22.2539V26.0539H34.8001C34.4744 27.2367 33.7593 28.2751 32.7702 29.001C31.7812 29.7269 30.5761 30.0979 29.3501 30.0539C28.3761 30.0506 27.4173 29.8122 26.5551 29.359C25.693 28.9057 24.9531 28.2511 24.3982 27.4506C23.8433 26.6501 23.4899 25.7275 23.368 24.7611C23.2461 23.7948 23.3593 22.8133 23.698 21.9001C24.0367 20.9868 24.5909 20.1689 25.3134 19.5158C26.036 18.8626 26.9056 18.3936 27.8482 18.1485C28.7909 17.9035 29.7788 17.8896 30.728 18.1082C31.6771 18.3267 32.5595 18.7712 33.3001 19.4039L36.1001 16.6039C34.8988 15.512 33.4498 14.729 31.8782 14.3225C30.3065 13.916 28.6596 13.8982 27.0796 14.2707C25.4995 14.6432 24.034 15.3947 22.8094 16.4603C21.5848 17.526 20.6381 18.8738 20.051 20.3872C19.4639 21.9006 19.254 23.5343 19.4396 25.147C19.6251 26.7597 20.2005 28.3029 21.116 29.6435C22.0315 30.984 23.2596 32.0816 24.6942 32.8413C26.1288 33.601 27.7267 34 29.3501 34.0039C37.7501 34.0039 39.6001 26.1539 38.8001 22.2539H29.3501Z" fill="black"/>
</g>
<path d="M54.264 29.114C53.256 29.114 52.3973 28.904 51.688 28.484C50.9787 28.0546 50.4373 27.462 50.064 26.706C49.6907 25.9406 49.504 25.0493 49.504 24.032C49.504 23.276 49.6067 22.59 49.812 21.974C50.0267 21.3486 50.3347 20.812 50.736 20.364C51.1467 19.916 51.646 19.5753 52.234 19.342C52.822 19.0993 53.4893 18.978 54.236 18.978C54.992 18.978 55.6687 19.0993 56.266 19.342C56.8633 19.5846 57.358 19.9486 57.75 20.434C58.1513 20.91 58.4127 21.5073 58.534 22.226H56.504C56.4293 21.918 56.294 21.666 56.098 21.47C55.902 21.2646 55.6547 21.1106 55.356 21.008C55.0667 20.9053 54.7353 20.854 54.362 20.854C53.8487 20.854 53.4147 20.9426 53.06 21.12C52.7053 21.2973 52.416 21.54 52.192 21.848C51.9773 22.1466 51.8187 22.492 51.716 22.884C51.6227 23.2666 51.576 23.6633 51.576 24.074C51.576 24.634 51.6693 25.1566 51.856 25.642C52.0427 26.118 52.3367 26.5053 52.738 26.804C53.1393 27.0933 53.6713 27.238 54.334 27.238C54.7727 27.238 55.16 27.1726 55.496 27.042C55.8413 26.902 56.1167 26.6966 56.322 26.426C56.5367 26.146 56.658 25.81 56.686 25.418H53.984V23.696H58.744V24.242C58.744 25.25 58.576 26.118 58.24 26.846C57.904 27.574 57.4047 28.134 56.742 28.526C56.0793 28.918 55.2533 29.114 54.264 29.114ZM64.7943 29.114C63.777 29.114 62.8996 28.8993 62.1623 28.47C61.4343 28.0406 60.8743 27.448 60.4823 26.692C60.0996 25.9266 59.9083 25.0493 59.9083 24.06C59.9083 23.052 60.1043 22.1653 60.4963 21.4C60.8976 20.6346 61.467 20.042 62.2043 19.622C62.9416 19.1926 63.819 18.978 64.8363 18.978C65.8443 18.978 66.7123 19.188 67.4403 19.608C68.1683 20.028 68.7283 20.616 69.1203 21.372C69.5216 22.128 69.7223 23.01 69.7223 24.018C69.7223 25.0073 69.5216 25.8893 69.1203 26.664C68.7283 27.4293 68.1636 28.0313 67.4263 28.47C66.6983 28.8993 65.821 29.114 64.7943 29.114ZM64.8223 27.238C65.4943 27.238 66.0403 27.084 66.4603 26.776C66.8803 26.468 67.1836 26.0713 67.3703 25.586C67.5663 25.1006 67.6643 24.592 67.6643 24.06C67.6643 23.668 67.6083 23.2806 67.4963 22.898C67.3936 22.5153 67.2303 22.17 67.0063 21.862C66.7823 21.554 66.4883 21.3113 66.1243 21.134C65.7603 20.9473 65.3216 20.854 64.8083 20.854C64.1456 20.854 63.6043 21.008 63.1843 21.316C62.7643 21.6146 62.4516 22.0066 62.2463 22.492C62.0503 22.9773 61.9523 23.4953 61.9523 24.046C61.9523 24.5966 62.0503 25.1146 62.2463 25.6C62.4516 26.0853 62.7643 26.482 63.1843 26.79C63.6136 27.0886 64.1596 27.238 64.8223 27.238ZM75.7728 29.114C74.7555 29.114 73.8781 28.8993 73.1408 28.47C72.4128 28.0406 71.8528 27.448 71.4608 26.692C71.0781 25.9266 70.8868 25.0493 70.8868 24.06C70.8868 23.052 71.0828 22.1653 71.4748 21.4C71.8761 20.6346 72.4455 20.042 73.1828 19.622C73.9201 19.1926 74.7975 18.978 75.8148 18.978C76.8228 18.978 77.6908 19.188 78.4188 19.608C79.1468 20.028 79.7068 20.616 80.0988 21.372C80.5001 22.128 80.7008 23.01 80.7008 24.018C80.7008 25.0073 80.5001 25.8893 80.0988 26.664C79.7068 27.4293 79.1421 28.0313 78.4048 28.47C77.6768 28.8993 76.7995 29.114 75.7728 29.114ZM75.8008 27.238C76.4728 27.238 77.0188 27.084 77.4388 26.776C77.8588 26.468 78.1621 26.0713 78.3488 25.586C78.5448 25.1006 78.6428 24.592 78.6428 24.06C78.6428 23.668 78.5868 23.2806 78.4748 22.898C78.3721 22.5153 78.2088 22.17 77.9848 21.862C77.7608 21.554 77.4668 21.3113 77.1028 21.134C76.7388 20.9473 76.3001 20.854 75.7868 20.854C75.1241 20.854 74.5828 21.008 74.1628 21.316C73.7428 21.6146 73.4301 22.0066 73.2248 22.492C73.0288 22.9773 72.9308 23.4953 72.9308 24.046C72.9308 24.5966 73.0288 25.1146 73.2248 25.6C73.4301 26.0853 73.7428 26.482 74.1628 26.79C74.5921 27.0886 75.1381 27.238 75.8008 27.238ZM86.6253 29.114C85.6173 29.114 84.7587 28.904 84.0493 28.484C83.34 28.0546 82.7987 27.462 82.4253 26.706C82.052 25.9406 81.8653 25.0493 81.8653 24.032C81.8653 23.276 81.968 22.59 82.1733 21.974C82.388 21.3486 82.696 20.812 83.0973 20.364C83.508 19.916 84.0073 19.5753 84.5953 19.342C85.1833 19.0993 85.8507 18.978 86.5973 18.978C87.3533 18.978 88.03 19.0993 88.6273 19.342C89.2247 19.5846 89.7193 19.9486 90.1113 20.434C90.5127 20.91 90.774 21.5073 90.8953 22.226H88.8653C88.7907 21.918 88.6553 21.666 88.4593 21.47C88.2633 21.2646 88.016 21.1106 87.7173 21.008C87.428 20.9053 87.0967 20.854 86.7233 20.854C86.21 20.854 85.776 20.9426 85.4213 21.12C85.0667 21.2973 84.7773 21.54 84.5533 21.848C84.3387 22.1466 84.18 22.492 84.0773 22.884C83.984 23.2666 83.9373 23.6633 83.9373 24.074C83.9373 24.634 84.0307 25.1566 84.2173 25.642C84.404 26.118 84.698 26.5053 85.0993 26.804C85.5007 27.0933 86.0327 27.238 86.6953 27.238C87.134 27.238 87.5213 27.1726 87.8573 27.042C88.2027 26.902 88.478 26.6966 88.6833 26.426C88.898 26.146 89.0193 25.81 89.0473 25.418H86.3453V23.696H91.1053V24.242C91.1053 25.25 90.9373 26.118 90.6013 26.846C90.2653 27.574 89.766 28.134 89.1033 28.526C88.4407 28.918 87.6147 29.114 86.6253 29.114ZM92.6652 29.002V19.09H94.6672V27.154H99.6932V29.002H92.6652ZM100.978 29.002V19.09H108.118V20.952H102.98V23.192H107.39V24.984H102.98V27.154H108.118V29.002H100.978Z" fill="black"/>
<defs>
<clipPath id="clip0_4103_11391">
<rect width="24" height="24" fill="white" transform="translate(17 12.002)"/>
</clipPath>
</defs>
</svg>
