<svg viewBox="0 0 24 27" fill="none" xmlns="http://www.w3.org/2000/svg">
<path d="M22 9H8V6C8 4.93913 8.42143 3.92172 9.17157 3.17157C9.92172 2.42143 10.9391 2 12 2C13.9213 2 15.65 3.375 16.02 5.19875C16.0749 5.45646 16.2294 5.68207 16.4497 5.82655C16.6701 5.97103 16.9385 6.0227 17.1968 5.97032C17.455 5.91795 17.6822 5.76577 17.8288 5.54686C17.9755 5.32795 18.0298 5.06 17.98 4.80125C17.415 2.01875 14.9 0 12 0C10.4092 0.00165449 8.88405 0.634327 7.75919 1.75919C6.63433 2.88405 6.00165 4.40921 6 6V9H2C1.46957 9 0.960859 9.21071 0.585786 9.58579C0.210714 9.96086 0 10.4696 0 11V25C0 25.5304 0.210714 26.0391 0.585786 26.4142C0.960859 26.7893 1.46957 27 2 27H22C22.5304 27 23.0391 26.7893 23.4142 26.4142C23.7893 26.0391 24 25.5304 24 25V11C24 10.4696 23.7893 9.96086 23.4142 9.58579C23.0391 9.21071 22.5304 9 22 9ZM22 25H2V11H22V25ZM13.5 18C13.5 18.2967 13.412 18.5867 13.2472 18.8334C13.0824 19.08 12.8481 19.2723 12.574 19.3858C12.2999 19.4993 11.9983 19.5291 11.7074 19.4712C11.4164 19.4133 11.1491 19.2704 10.9393 19.0607C10.7296 18.8509 10.5867 18.5836 10.5288 18.2926C10.4709 18.0017 10.5006 17.7001 10.6142 17.426C10.7277 17.1519 10.92 16.9176 11.1666 16.7528C11.4133 16.588 11.7033 16.5 12 16.5C12.3978 16.5 12.7794 16.658 13.0607 16.9393C13.342 17.2206 13.5 17.6022 13.5 18Z" fill="black"/>
</svg>
