<svg viewBox="0 0 185 32" fill="none" xmlns="http://www.w3.org/2000/svg">
<g clip-path="url(#clip0_6686_23574)">
<path d="M25 23V9C25 8.44772 24.5523 8 24 8H19C18.4477 8 18 8.44772 18 9V23C18 23.5523 18.4477 24 19 24H24C24.5523 24 25 23.5523 25 23Z" fill="white"/>
<path d="M13 5H8C7.44772 5 7 5.44772 7 6V26C7 26.5523 7.44772 27 8 27H13C13.5523 27 14 26.5523 14 26V6C14 5.44772 13.5523 5 13 5Z" fill="#5F4FE6"/>
<path d="M28 16H25" stroke="black" stroke-width="2" stroke-linecap="round" stroke-linejoin="round"/>
<path d="M7 16H4" stroke="black" stroke-width="2" stroke-linecap="round" stroke-linejoin="round"/>
<path d="M18 16H14" stroke="black" stroke-width="2" stroke-linecap="round" stroke-linejoin="round"/>
<path d="M25 23V9C25 8.44772 24.5523 8 24 8H19C18.4477 8 18 8.44772 18 9V23C18 23.5523 18.4477 24 19 24H24C24.5523 24 25 23.5523 25 23Z" stroke="black" stroke-width="2" stroke-linecap="round" stroke-linejoin="round"/>
<path d="M13 5H8C7.44772 5 7 5.44772 7 6V26C7 26.5523 7.44772 27 8 27H13C13.5523 27 14 26.5523 14 26V6C14 5.44772 13.5523 5 13 5Z" stroke="black" stroke-width="2" stroke-linecap="round" stroke-linejoin="round"/>
</g>
<path d="M50.912 27L48.064 13.592H47.936L45.088 27H37.312L32.16 4.984H39.52L42.048 17.464H42.176L44.672 4.984H51.648L54.304 17.464H54.432L56.8 4.984H63.84L58.688 27H50.912ZM71.1105 11.864C71.7932 11.1813 72.5932 10.6587 73.5105 10.296C74.4278 9.912 75.3878 9.72 76.3905 9.72C78.3532 9.72 79.8252 10.264 80.8065 11.352C81.7878 12.44 82.2785 14.008 82.2785 16.056V27H75.9105V16.824C75.9105 16.0987 75.7185 15.5227 75.3345 15.096C74.9718 14.648 74.4492 14.424 73.7665 14.424C72.9772 14.424 72.3372 14.68 71.8465 15.192C71.3558 15.704 71.1105 16.3333 71.1105 17.08V27H64.7425V3.8H71.1105V11.864ZM92.5823 9.72C95.6756 9.72 98.0329 10.4453 99.6543 11.896C101.297 13.3467 102.118 15.5653 102.118 18.552V19.64H89.4463C89.4463 20.856 89.7129 21.7733 90.2463 22.392C90.8009 23.0107 91.6649 23.32 92.8383 23.32C93.9049 23.32 94.6836 23.096 95.1743 22.648C95.6863 22.2 95.9423 21.6027 95.9423 20.856H102.118C102.118 22.904 101.34 24.504 99.7823 25.656C98.2249 26.808 95.9529 27.384 92.9663 27.384C89.8303 27.384 87.3983 26.6587 85.6703 25.208C83.9423 23.736 83.0783 21.5173 83.0783 18.552C83.0783 15.6507 83.9209 13.4533 85.6063 11.96C87.2916 10.4667 89.6169 9.72 92.5823 9.72ZM92.8383 13.784C90.8329 13.784 89.7129 14.7333 89.4783 16.632H95.6863C95.6863 15.7573 95.4303 15.064 94.9183 14.552C94.4276 14.04 93.7343 13.784 92.8383 13.784ZM111.686 9.72C114.779 9.72 117.137 10.4453 118.758 11.896C120.401 13.3467 121.222 15.5653 121.222 18.552V19.64H108.55C108.55 20.856 108.817 21.7733 109.35 22.392C109.905 23.0107 110.769 23.32 111.942 23.32C113.009 23.32 113.787 23.096 114.278 22.648C114.79 22.2 115.046 21.6027 115.046 20.856H121.222C121.222 22.904 120.443 24.504 118.886 25.656C117.329 26.808 115.057 27.384 112.07 27.384C108.934 27.384 106.502 26.6587 104.774 25.208C103.046 23.736 102.182 21.5173 102.182 18.552C102.182 15.6507 103.025 13.4533 104.71 11.96C106.395 10.4667 108.721 9.72 111.686 9.72ZM111.942 13.784C109.937 13.784 108.817 14.7333 108.582 16.632H114.79C114.79 15.7573 114.534 15.064 114.022 14.552C113.531 14.04 112.838 13.784 111.942 13.784ZM133.702 9.72C135.664 9.72 137.136 10.264 138.118 11.352C139.099 12.44 139.59 14.008 139.59 16.056V27H133.222V16.824C133.222 16.0987 133.03 15.5227 132.646 15.096C132.283 14.648 131.76 14.424 131.078 14.424C130.288 14.424 129.648 14.68 129.158 15.192C128.667 15.704 128.422 16.3333 128.422 17.08V27H122.054V10.104H127.27L127.686 12.664C128.347 11.768 129.211 11.0533 130.278 10.52C131.366 9.98667 132.507 9.72 133.702 9.72ZM152.422 10.104V14.424H148.838V20.856C148.838 21.624 148.966 22.1893 149.222 22.552C149.478 22.8933 149.947 23.064 150.63 23.064H152.422V26.808C151.91 26.9787 151.248 27.1173 150.438 27.224C149.627 27.3307 148.923 27.384 148.326 27.384C146.448 27.384 144.998 27.0427 143.974 26.36C142.971 25.6773 142.47 24.5147 142.47 22.872V14.424H140.102V10.104H142.726L144.102 4.984H148.838V10.104H152.422ZM161.488 9.72C164.07 9.72 166.171 10.1573 167.792 11.032C169.414 11.8853 170.224 13.2827 170.224 15.224V21.816C170.224 22.1787 170.31 22.4773 170.48 22.712C170.651 22.9467 170.907 23.064 171.248 23.064H172.4V26.744C172.336 26.7867 172.166 26.8613 171.888 26.968C171.632 27.0533 171.259 27.1387 170.768 27.224C170.278 27.3307 169.712 27.384 169.072 27.384C167.835 27.384 166.811 27.2027 166 26.84C165.211 26.456 164.667 25.9333 164.368 25.272C163.558 25.912 162.651 26.424 161.648 26.808C160.646 27.192 159.472 27.384 158.128 27.384C154.16 27.384 152.176 25.8053 152.176 22.648C152.176 21.0053 152.614 19.7573 153.488 18.904C154.384 18.0293 155.664 17.432 157.328 17.112C158.992 16.792 161.168 16.632 163.856 16.632V15.8C163.856 15.1387 163.622 14.6373 163.152 14.296C162.704 13.9547 162.118 13.784 161.392 13.784C160.731 13.784 160.155 13.9013 159.664 14.136C159.195 14.3707 158.96 14.744 158.96 15.256V15.384H152.688C152.667 15.2773 152.656 15.128 152.656 14.936C152.656 13.336 153.414 12.0667 154.928 11.128C156.464 10.1893 158.651 9.72 161.488 9.72ZM163.856 19.64C162.043 19.64 160.699 19.8427 159.824 20.248C158.971 20.632 158.544 21.1547 158.544 21.816C158.544 22.8827 159.27 23.416 160.72 23.416C161.552 23.416 162.278 23.192 162.896 22.744C163.536 22.296 163.856 21.7413 163.856 21.08V19.64ZM182.512 9.688C183.003 9.688 183.44 9.752 183.824 9.88C184.208 9.98667 184.4 10.0507 184.4 10.072V15.416H182.352C181.029 15.416 180.069 15.7573 179.472 16.44C178.896 17.1227 178.608 18.136 178.608 19.48V27H172.24V10.104H177.456L177.872 12.664C178.256 11.6827 178.864 10.9467 179.696 10.456C180.528 9.944 181.467 9.688 182.512 9.688Z" fill="black"/>
<defs>
<clipPath id="clip0_6686_23574">
<rect width="32" height="32" fill="white"/>
</clipPath>
</defs>
</svg>
