<svg width="18" height="16" viewBox="0 0 18 16" fill="none" xmlns="http://www.w3.org/2000/svg">
<path d="M16.2564 0.744078C16.5818 1.06951 16.5818 1.59715 16.2564 1.92259L2.92304 15.2559C2.5976 15.5814 2.06996 15.5814 1.74453 15.2559C1.41909 14.9305 1.41909 14.4028 1.74453 14.0774L15.0779 0.744078C15.4033 0.418641 15.9309 0.418641 16.2564 0.744078Z" fill="black"/>
<path d="M12.1667 2.4767C11.2281 2.03469 10.1698 1.75 9.00043 1.75C6.54702 1.75 4.58275 3.00308 3.18677 4.33307C1.78759 5.66611 0.879699 7.14973 0.520313 7.7915C0.284795 8.21207 0.256745 8.71426 0.450068 9.16031C0.585079 9.47181 0.814683 9.95437 1.1531 10.5143C1.39114 10.9082 1.90343 11.0346 2.29732 10.7965C2.69122 10.5585 2.81756 10.0462 2.57952 9.65232C2.30733 9.20192 2.11846 8.81241 2.00389 8.55369C2.34202 7.95778 3.14282 6.67693 4.33642 5.53975C5.56932 4.36513 7.14214 3.41667 9.00043 3.41667C9.66881 3.41667 10.3003 3.53937 10.8923 3.75116L12.1667 2.4767Z" fill="black"/>
<path d="M13.7425 5.61491C14.893 6.73288 15.6663 7.97087 15.997 8.55369C15.8824 8.81241 15.6935 9.20192 15.4213 9.65232C15.1833 10.0462 15.3096 10.5585 15.7035 10.7965C16.0974 11.0346 16.6097 10.9082 16.8478 10.5143C17.1862 9.95437 17.4158 9.47181 17.5508 9.1603C17.7441 8.71426 17.7161 8.21207 17.4806 7.7915C17.1304 7.16625 16.2597 5.74193 14.9212 4.43629L13.7425 5.61491Z" fill="black"/>
<path d="M9.00045 4.66667C9.30329 4.66667 9.59859 4.69898 9.88309 4.76034L8.16823 6.47519C7.45699 6.7262 6.89331 7.28987 6.64231 8.00112L4.92745 9.71597C4.86609 9.43148 4.83378 9.13618 4.83378 8.83333C4.83378 6.53215 6.69926 4.66667 9.00045 4.66667Z" fill="black"/>
<path d="M9.00045 11.3333C8.70805 11.3333 8.42738 11.2831 8.16658 11.1909L6.91571 12.4418C7.52889 12.7968 8.24094 13 9.00045 13C11.3016 13 13.1671 11.1345 13.1671 8.83333C13.1671 8.07382 12.9639 7.36177 12.6089 6.74859L11.358 7.99947C11.4503 8.26027 11.5004 8.54094 11.5004 8.83333C11.5004 10.214 10.3812 11.3333 9.00045 11.3333Z" fill="black"/>
</svg>
