<svg width="44" height="38" viewBox="0 0 44 38" fill="none" xmlns="http://www.w3.org/2000/svg">
<path fill-rule="evenodd" clip-rule="evenodd" d="M4.75008 8.41667C4.75008 6.29958 6.46632 4.58333 8.58341 4.58333H29.6667C30.7253 4.58333 31.5834 3.72521 31.5834 2.66667C31.5834 1.60812 30.7253 0.75 29.6667 0.75H8.58341C4.34923 0.75 0.916748 4.18248 0.916748 8.41667V29.5C0.916748 33.7342 4.34923 37.1667 8.58341 37.1667H35.4167C39.6509 37.1667 43.0834 33.7342 43.0834 29.5V14.1667C43.0834 13.1081 42.2253 12.25 41.1667 12.25C40.1082 12.25 39.2501 13.1081 39.2501 14.1667V23.0777L32.2424 14.3181C29.001 10.2663 22.755 10.5374 19.8767 14.8547L17.6924 18.1311C15.0811 16.6979 11.7866 17.4983 10.1312 20.0042L4.75008 28.1499V8.41667ZM29.2491 16.7128L39.2501 29.214V29.5C39.2501 31.6171 37.5338 33.3333 35.4167 33.3333H15.7461C14.2152 33.3333 13.3021 31.6272 14.1513 30.3535L23.0662 16.9811C24.5054 14.8224 27.6284 14.6869 29.2491 16.7128ZM10.9618 28.2271C9.87374 29.8592 9.7501 31.7279 10.3234 33.3333H9.54175C8.4832 33.3333 7.62508 32.4752 7.62508 31.4167V31.3283C7.62508 30.9527 7.73547 30.5853 7.94252 30.2719L13.3296 22.1171C13.8179 21.3779 14.7341 21.0839 15.5418 21.3572L10.9618 28.2271Z" fill="black"/>
<path d="M8.93417 11.8634C9.85625 12.1707 10.5798 12.8943 10.8872 13.8163C11.2 14.7548 12.5273 14.7548 12.8401 13.8163C13.1475 12.8943 13.871 12.1707 14.7931 11.8634C15.7315 11.5506 15.7315 10.2232 14.7931 9.91038C13.871 9.60302 13.1475 8.87947 12.8401 7.9574C12.5273 7.01898 11.2 7.01898 10.8872 7.9574C10.5798 8.87947 9.85625 9.60302 8.93417 9.91038C7.99575 10.2232 7.99575 11.5506 8.93417 11.8634Z" fill="black"/>
<path d="M39.2501 2.66667C39.2501 1.60812 38.392 0.75 37.3334 0.75C36.2749 0.75 35.4167 1.60812 35.4167 2.66667V4.58333H33.5001C32.4415 4.58333 31.5834 5.44145 31.5834 6.5C31.5834 7.55855 32.4415 8.41667 33.5001 8.41667H35.4167V10.3333C35.4167 11.3919 36.2749 12.25 37.3334 12.25C38.392 12.25 39.2501 11.3919 39.2501 10.3333V8.41667H41.1667C42.2253 8.41667 43.0834 7.55855 43.0834 6.5C43.0834 5.44145 42.2253 4.58333 41.1667 4.58333H39.2501V2.66667Z" fill="black"/>
</svg>
