<svg width="18" height="18" viewBox="0 0 18 18" fill="none" xmlns="http://www.w3.org/2000/svg">
<path d="M9.83332 6.49935C9.83332 6.03911 9.46023 5.66602 8.99999 5.66602C8.53975 5.66602 8.16666 6.03911 8.16666 6.49935V8.16602H6.49999C6.03975 8.16602 5.66666 8.53911 5.66666 8.99935C5.66666 9.45959 6.03975 9.83268 6.49999 9.83268H8.16666V11.4993C8.16666 11.9596 8.53975 12.3327 8.99999 12.3327C9.46023 12.3327 9.83332 11.9596 9.83332 11.4993V9.83268H11.5C11.9602 9.83268 12.3333 9.45959 12.3333 8.99935C12.3333 8.53911 11.9602 8.16602 11.5 8.16602H9.83332V6.49935Z" fill="black"/>
<path fill-rule="evenodd" clip-rule="evenodd" d="M8.99999 0.666016C4.39762 0.666016 0.666656 4.39698 0.666656 8.99935C0.666656 13.6017 4.39762 17.3327 8.99999 17.3327C13.6024 17.3327 17.3333 13.6017 17.3333 8.99935C17.3333 4.39698 13.6024 0.666016 8.99999 0.666016ZM2.33332 8.99935C2.33332 5.31745 5.31809 2.33268 8.99999 2.33268C12.6819 2.33268 15.6667 5.31745 15.6667 8.99935C15.6667 12.6812 12.6819 15.666 8.99999 15.666C5.31809 15.666 2.33332 12.6812 2.33332 8.99935Z" fill="black"/>
</svg>
