<svg width="21" height="19" viewBox="0 0 21 19" fill="none" xmlns="http://www.w3.org/2000/svg">
<path d="M19.3203 3.66025C20.3092 5.37309 20.768 7.34071 20.6386 9.31429C20.5093 11.2879 19.7976 13.1788 18.5936 14.7479C17.3896 16.317 15.7473 17.4938 13.8745 18.1296C12.0016 18.7653 9.98229 18.8314 8.07187 18.3195C6.16144 17.8076 4.44572 16.7407 3.14166 15.2537C1.8376 13.7667 1.00376 11.9264 0.745608 9.96551C0.487452 8.00462 0.816566 6.01121 1.69133 4.23737C2.56609 2.46352 3.94722 0.988905 5.66006 -1.01332e-06L6.76006 1.90526C5.42405 2.6766 4.34677 3.8268 3.66445 5.2104C2.98213 6.594 2.72543 8.14886 2.92679 9.67836C3.12815 11.2079 3.77854 12.6433 4.79571 13.8032C5.81288 14.963 7.15114 15.7952 8.64127 16.1945C10.1314 16.5938 11.7065 16.5422 13.1673 16.0463C14.6281 15.5504 15.9091 14.6325 16.8482 13.4086C17.7873 12.1847 18.3425 10.7098 18.4434 9.1704C18.5443 7.63101 18.1864 6.09627 17.4151 4.76025L19.3203 3.66025Z" fill="black"/>
</svg>
