<svg width="20" height="20" viewBox="0 0 20 20" fill="none" xmlns="http://www.w3.org/2000/svg">
<path d="M0.402289 12.8088C-0.15321 10.9106 -0.133351 8.89028 0.459353 7.00336C1.05206 5.11645 2.19099 3.44767 3.73211 2.20804C5.27324 0.968418 7.14735 0.213632 9.11745 0.0391265C11.0876 -0.135377 13.0652 0.278241 14.8002 1.22767C16.5352 2.17711 17.9497 3.61972 18.8649 5.37307C19.78 7.12643 20.1547 9.11178 19.9415 11.0781C19.7283 13.0444 18.9368 14.9033 17.6671 16.4197C16.3975 17.9362 14.7066 19.0421 12.8084 19.5976L12.1905 17.4862C13.6711 17.0529 14.99 16.1903 15.9803 15.0074C16.9707 13.8246 17.588 12.3746 17.7543 10.8409C17.9206 9.30722 17.6284 7.75864 16.9146 6.39102C16.2007 5.02341 15.0974 3.89817 13.7441 3.15762C12.3908 2.41706 10.8482 2.09444 9.31156 2.23055C7.77488 2.36666 6.31308 2.9554 5.111 3.9223C3.90892 4.88921 3.02055 6.19086 2.55824 7.66265C2.09593 9.13445 2.08044 10.7103 2.51373 12.1909L0.402289 12.8088Z" fill="#FAF2E8"/>
</svg>
