<svg width="20" height="20" viewBox="0 0 20 19" fill="none" xmlns="http://www.w3.org/2000/svg">
<path d="M18.6602 4.0001C19.6491 5.71294 20.1078 7.68055 19.9785 9.65413C19.8491 11.6277 19.1374 13.5186 17.9334 15.0877C16.7294 16.6568 15.0871 17.8337 13.2143 18.4694C11.3414 19.1051 9.32213 19.1713 7.41171 18.6594C5.50129 18.1475 3.78556 17.0806 2.4815 15.5936C1.17744 14.1066 0.343608 12.2663 0.0854529 10.3054C-0.172704 8.34447 0.15641 6.35106 1.03117 4.57721C1.90594 2.80336 3.28707 1.32875 4.9999 0.339843L6.0999 2.2451C4.76389 3.01645 3.68661 4.16664 3.00429 5.55024C2.32198 6.93385 2.06527 8.4887 2.26663 10.0182C2.46799 11.5477 3.11838 12.9831 4.13555 14.143C5.15272 15.3029 6.49098 16.135 7.98111 16.5343C9.47124 16.9336 11.0463 16.882 12.5071 16.3862C13.968 15.8903 15.2489 14.9723 16.1881 13.7484C17.1272 12.5245 17.6823 11.0496 17.7832 9.51024C17.8841 7.97085 17.5262 6.43611 16.7549 5.1001L18.6602 4.0001Z" fill="#FAF2E8"/>
</svg>
