<svg width="22" height="16" viewBox="0 0 22 16" fill="none" xmlns="http://www.w3.org/2000/svg">
<g clip-path="url(#clip0_3036_5106)">
<path d="M0.333008 0H21.6663V16H0.333008V0Z" fill="#012169"/>
<path d="M2.83301 0L10.9663 6.03333L19.0663 0H21.6663V2.06667L13.6663 8.03333L21.6663 13.9667V16H18.9997L10.9997 10.0333L3.03301 16H0.333008V14L8.29967 8.06667L0.333008 2.13333V0H2.83301Z" fill="white"/>
<path d="M14.4663 9.36667L21.6663 14.6667V16L12.633 9.36667H14.4663ZM8.33301 10.0333L8.53301 11.2L2.13301 16H0.333008L8.33301 10.0333ZM21.6663 0V0.1L13.3663 6.36667L13.433 4.9L19.9997 0H21.6663ZM0.333008 0L8.29967 5.86667H6.29967L0.333008 1.4V0Z" fill="#C8102E"/>
<path d="M8.36634 0V16H13.6997V0H8.36634ZM0.333008 5.33333V10.6667H21.6663V5.33333H0.333008Z" fill="white"/>
<path d="M0.333008 6.43333V9.63333H21.6663V6.43333H0.333008ZM9.43301 0V16H12.633V0H9.43301Z" fill="#C8102E"/>
</g>
<defs>
<clipPath id="clip0_3036_5106">
<rect width="21.3333" height="16" fill="white" transform="translate(0.333008)"/>
</clipPath>
</defs>
</svg>
