<svg width="54" height="40" viewBox="0 0 54 40" fill="none" xmlns="http://www.w3.org/2000/svg">
<path d="M24.419 -50.1935C36.8118 -30.335 49.6446 5.56018 53.1645 30.3646C53.8244 35.0107 54.1911 39.1323 53.8978 39.5819C53.6045 40.0315 49.498 36.3596 44.2915 31.1889C39.305 26.0931 34.8319 21.8217 34.4652 21.7467C34.0253 21.5969 27.7922 15.0023 20.5325 7.13388C8.72631 -5.68047 5.64643 -9.87699 8.13966 -9.87699C10.4862 -9.87699 18.7726 -2.7579 30.9454 9.83164C38.5717 17.6252 44.7315 23.6951 44.7315 23.3204C44.7315 22.646 25.4456 -10.1767 23.9057 -12.1251C23.3924 -12.7246 21.4125 -15.9469 19.4325 -19.1693C16.206 -24.5648 9.23962 -34.2317 2.56656 -42.6997C1.17329 -44.4982 0 -46.4466 0 -47.0461C0 -49.594 3.00654 -47.5707 10.3396 -39.927C16.1327 -34.0069 19.8725 -29.2109 24.419 -22.1668C32.1187 -10.1018 38.6451 1.06392 41.7983 7.35869C43.1182 10.0564 44.3648 11.855 44.5115 11.4053C44.9515 10.0564 30.2854 -29.8104 25.3723 -40.5265C22.7324 -46.1468 20.5325 -51.3925 20.3858 -52.1419C19.8725 -55.0644 22.0724 -54.0902 24.419 -50.1935Z" fill="white"/>
</svg>
