<svg width="14" height="14" viewBox="0 0 14 14" fill="none" xmlns="http://www.w3.org/2000/svg">
<path d="M6.05733 5.11503C5.79698 4.85468 5.37487 4.85468 5.11452 5.11503C4.85417 5.37538 4.85417 5.79749 5.11452 6.05784L6.05733 7.00065L5.11452 7.94346C4.85417 8.20381 4.85417 8.62592 5.11452 8.88627C5.37487 9.14662 5.79698 9.14662 6.05733 8.88627L7.00014 7.94346L7.94295 8.88627C8.2033 9.14662 8.62541 9.14662 8.88576 8.88627C9.14611 8.62592 9.14611 8.20381 8.88576 7.94346L7.94295 7.00065L8.88576 6.05784C9.14611 5.79749 9.14611 5.37538 8.88576 5.11503C8.62541 4.85468 8.2033 4.85468 7.94295 5.11503L7.00014 6.05784L6.05733 5.11503Z" fill="#CC1A06"/>
<path fill-rule="evenodd" clip-rule="evenodd" d="M7.00016 0.333984C3.31826 0.333984 0.333496 3.31875 0.333496 7.00065C0.333496 10.6825 3.31826 13.6673 7.00016 13.6673C10.6821 13.6673 13.6668 10.6825 13.6668 7.00065C13.6668 3.31875 10.6821 0.333984 7.00016 0.333984ZM1.66683 7.00065C1.66683 4.05513 4.05464 1.66732 7.00016 1.66732C9.94568 1.66732 12.3335 4.05513 12.3335 7.00065C12.3335 9.94617 9.94568 12.334 7.00016 12.334C4.05464 12.334 1.66683 9.94617 1.66683 7.00065Z" fill="#CC1A06"/>
</svg>
