<svg width="164" height="50" viewBox="0 0 164 50" fill="none" xmlns="http://www.w3.org/2000/svg">
<rect x="0.5" y="0.501953" width="162.5" height="48.9973" rx="7.5" fill="#FAF1E8"/>
<rect x="0.5" y="0.501953" width="162.5" height="48.9973" rx="7.5" stroke="black"/>
<path d="M30 27L33.5 18.3848H36L29 38H26L28.5 30.5L24 18.3848H26.6086L30 27Z" fill="black" stroke="black"/>
<circle cx="38.25" cy="25.25" r="2.25" fill="black"/>
<path d="M45.5 12.002H41.867L38.0078 22H41.5L45.5 12.002Z" fill="black" stroke="black"/>
<path d="M57.266 30V26.304L53.584 20.088H55.894L58.274 24.442L60.696 20.088H62.964L59.268 26.29V30H57.266ZM62.223 30L66.087 20.088H68.327L72.149 30H69.993L69.377 28.306H64.995L64.379 30H62.223ZM65.639 26.5H68.747L67.207 22.216L65.639 26.5ZM73.2121 30V20.088H75.2141V24.19H79.4981V20.088H81.5141V30H79.4981V26.038H75.2141V30H73.2121ZM87.9564 30.112C86.9391 30.112 86.0617 29.8973 85.3244 29.468C84.5964 29.0387 84.0364 28.446 83.6444 27.69C83.2617 26.9247 83.0704 26.0473 83.0704 25.058C83.0704 24.05 83.2664 23.1633 83.6584 22.398C84.0597 21.6327 84.6291 21.04 85.3664 20.62C86.1037 20.1907 86.9811 19.976 87.9984 19.976C89.0064 19.976 89.8744 20.186 90.6024 20.606C91.3304 21.026 91.8904 21.614 92.2824 22.37C92.6837 23.126 92.8844 24.008 92.8844 25.016C92.8844 26.0053 92.6837 26.8873 92.2824 27.662C91.8904 28.4273 91.3257 29.0293 90.5884 29.468C89.8604 29.8973 88.9831 30.112 87.9564 30.112ZM87.9844 28.236C88.6564 28.236 89.2024 28.082 89.6224 27.774C90.0424 27.466 90.3457 27.0693 90.5324 26.584C90.7284 26.0987 90.8264 25.59 90.8264 25.058C90.8264 24.666 90.7704 24.2787 90.6584 23.896C90.5557 23.5133 90.3924 23.168 90.1684 22.86C89.9444 22.552 89.6504 22.3093 89.2864 22.132C88.9224 21.9453 88.4837 21.852 87.9704 21.852C87.3077 21.852 86.7664 22.006 86.3464 22.314C85.9264 22.6127 85.6137 23.0047 85.4084 23.49C85.2124 23.9753 85.1144 24.4933 85.1144 25.044C85.1144 25.5947 85.2124 26.1127 85.4084 26.598C85.6137 27.0833 85.9264 27.48 86.3464 27.788C86.7757 28.0867 87.3217 28.236 87.9844 28.236ZM98.9349 30.112C97.9176 30.112 97.0403 29.8973 96.3029 29.468C95.5749 29.0387 95.0149 28.446 94.6229 27.69C94.2403 26.9247 94.0489 26.0473 94.0489 25.058C94.0489 24.05 94.2449 23.1633 94.6369 22.398C95.0383 21.6327 95.6076 21.04 96.3449 20.62C97.0823 20.1907 97.9596 19.976 98.9769 19.976C99.9849 19.976 100.853 20.186 101.581 20.606C102.309 21.026 102.869 21.614 103.261 22.37C103.662 23.126 103.863 24.008 103.863 25.016C103.863 26.0053 103.662 26.8873 103.261 27.662C102.869 28.4273 102.304 29.0293 101.567 29.468C100.839 29.8973 99.9616 30.112 98.9349 30.112ZM98.9629 28.236C99.6349 28.236 100.181 28.082 100.601 27.774C101.021 27.466 101.324 27.0693 101.511 26.584C101.707 26.0987 101.805 25.59 101.805 25.058C101.805 24.666 101.749 24.2787 101.637 23.896C101.534 23.5133 101.371 23.168 101.147 22.86C100.923 22.552 100.629 22.3093 100.265 22.132C99.9009 21.9453 99.4623 21.852 98.9489 21.852C98.2863 21.852 97.7449 22.006 97.3249 22.314C96.9049 22.6127 96.5923 23.0047 96.3869 23.49C96.1909 23.9753 96.0929 24.4933 96.0929 25.044C96.0929 25.5947 96.1909 26.1127 96.3869 26.598C96.5923 27.0833 96.9049 27.48 97.3249 27.788C97.7543 28.0867 98.3003 28.236 98.9629 28.236ZM105.423 30V20.088H108.083L110.729 24.876L113.347 20.088H115.909V30H113.907V22.762L111.093 27.788H110.281L107.425 22.762V30H105.423ZM116.979 30L120.843 20.088H123.083L126.905 30H124.749L124.133 28.306H119.751L119.135 30H116.979ZM120.395 26.5H123.503L121.963 22.216L120.395 26.5ZM127.968 30V20.088H129.97V30H127.968ZM132.07 30V20.088H134.072V28.152H139.098V30H132.07Z" fill="black"/>
</svg>
